<svg xmlns="http://www.w3.org/2000/svg" width="128" height="80" viewBox="0 0 33.867 21.167"><path d="M27.94.637c1.636.427 2.158 1.138 2.158 2.916v3.983c0 1.992.45 2.584 2.23 3.035-1.778.474-2.23 1.09-2.23 3.058v3.983c0 1.778-.522 2.49-2.158 2.916v.26c1.565-.024 2.18-.166 2.87-.593s1.043-1.35 1.043-2.703v-4.22c0-1.66.427-2.205 2.015-2.703-1.59-.474-2.015-1.02-2.015-2.68V3.696c0-1.328-.38-2.3-1.043-2.727S29.528.4 27.94.377zm-2.236 16.998c-.9-.07-1.375-.308-2.063-1.114l-4.884-5.998c1.59-.308 2.3-.593 3.082-1.233.76-.616 1.21-1.612 1.21-2.727 0-1.02-.308-1.897-.925-2.584-.9-.972-2.87-1.59-5.097-1.59h-6.544v.45c1.778.2 2.015.45 2.015 2.134V15.24c0 1.968-.237 2.252-2.015 2.395v.45h6.567v-.45c-1.826-.12-2.134-.427-2.134-2.134v-4.67l1.328-.047 5.643 7.302h3.817zM14.915 4.122c0-.664.26-.854 1.21-.854 2.964 0 4.34 1.02 4.34 3.248 0 1.185-.498 2.18-1.35 2.632-1.09.616-1.92.76-4.196.806zM5.927 20.53C4.29 20.102 3.77 19.39 3.77 17.613V13.63c0-1.968-.45-2.584-2.23-3.035 1.778-.474 2.23-1.09 2.23-3.058V3.554c0-1.778.522-2.49 2.158-2.916v-.26C4.362.4 3.746.543 3.058.97S2.015 2.32 2.015 3.672v4.22c0 1.66-.427 2.205-2.015 2.68 1.59.498 2.015 1.067 2.015 2.703v4.196c0 1.328.38 2.3 1.043 2.727s1.304.57 2.87.593z" fill="#3836a3"/></svg>
